<svg xmlns="http://www.w3.org/2000/svg" xmlns:xlink="http://www.w3.org/1999/xlink" width="243" height="153" viewBox="0 0 243 153">
    <defs>
        <path id="a" d="M0 0h20v20H0z"/>
    </defs>
    <g fill="none" fill-rule="evenodd">
        <path d="M36 80h24v24H36z"/>
        <path fill="#FFF" fill-rule="nonzero" d="M50 82h-8c-1.1 0-1.99.9-1.99 2L40 100c0 1.1.89 2 1.99 2H54c1.1 0 2-.9 2-2V88l-6-6zm2 16h-8v-2h8v2zm0-4h-8v-2h8v2zm-3-5v-5.5l5.5 5.5H49zM89 84H73c-1.1 0-2 .9-2 2v12c0 1.1.9 2 2 2h14l4 4V86c0-1.1-.9-2-2-2zm-2 12H75v-2h12v2zm0-3H75v-2h12v2zm0-3H75v-2h12v2z"/>
        <path d="M69 82h24v24H69z"/>
        <g fill-rule="nonzero">
            <path fill="#FFF" d="M185.21 20.937l-.686 2.975a7.892 7.892 0 0 1-2.65 3.608l57.131.162c.962 0 1.457-.038 1.846-.862.088-.186.413-1.184.473-1.382.315-1.033 1.08-4.5 1.08-4.5h-57.193zM177.627 8.245h8.29l-3.276 14.202-.323 1.39a5.868 5.868 0 0 1-5.52 3.862h-8.493l3.372-14.6.136-.522c.016-.054.03-.11.05-.165a6.074 6.074 0 0 1 5.764-4.167zm-3.698 5.391c-.469.386-.767.856-.858 1.229l-1.755 7.924.1-.003c.552 0 1.063-.192 1.528-.58.47-.38.76-.853.884-1.392l.45-2.015h3.767c.542 0 1.057-.197 1.53-.577.47-.384.773-.854.893-1.402l.022-.1h-5.75l.356-1.586h5.441c.543 0 1.06-.188 1.525-.573.469-.383.759-.865.887-1.404l.023-.102-7.515-.002c-.545 0-1.06.196-1.528.583zM193.537 12.783l-.519 2.35h-3.45l-.903 4.102h-3.128l2.364-10.767h7.59l-.538 2.422h-4.449l-.418 1.893h3.45zm1.995-1.515h2.656l-.42 1.922c.629-1.439 1.512-2.158 2.65-2.158.09 0 .214.012.37.04l-.505 2.837a14.046 14.046 0 0 0-.542-.02c-.658 0-1.15.151-1.472.46-.324.307-.573.852-.744 1.634l-.713 3.253h-3.032l1.752-7.968zm9.416 0l-1.753 7.968h-3.097l1.753-7.968h3.097zm.67-3.053l-.514 2.342h-3.096l.516-2.342h3.094zM213.799 15.835h-5.49c-.038.217-.06.378-.065.485-.02.346.078.62.292.815.214.195.49.292.834.292.645 0 1.121-.335 1.424-1.007l2.661.433c-.39.78-.984 1.412-1.785 1.895-.8.482-1.674.723-2.62.723-1.19 0-2.134-.337-2.838-1.013-.705-.675-1.026-1.599-.965-2.765.067-1.266.56-2.355 1.481-3.261.92-.909 2.087-1.361 3.495-1.361 1.193 0 2.126.35 2.796 1.055.67.705.976 1.639.915 2.803a5.616 5.616 0 0 1-.135.906zm-2.79-1.53c.034-.162.054-.29.058-.38a1.065 1.065 0 0 0-.226-.74c-.165-.21-.405-.316-.72-.316-.337 0-.649.128-.935.383-.287.255-.474.607-.56 1.053h2.382zM216.034 11.268h2.776l-.28 1.295a2.326 2.326 0 0 1 1.118-1.165 3.537 3.537 0 0 1 1.564-.366c.678 0 1.218.18 1.62.535.4.358.585.828.556 1.412a5.497 5.497 0 0 1-.12.814l-1.197 5.442h-3.03l1.055-4.787c.068-.307.105-.509.11-.608.024-.448-.201-.672-.674-.672-.635 0-1.046.428-1.234 1.28l-1.056 4.787h-2.96l1.752-7.967zM233.93 8.468l-2.362 10.767h-2.833l.26-1.204c-.703.962-1.516 1.44-2.442 1.44-.72 0-1.326-.284-1.817-.852-.49-.566-.707-1.378-.652-2.437a6.43 6.43 0 0 1 1.267-3.549c.775-1.058 1.728-1.586 2.853-1.586.962 0 1.592.379 1.891 1.138l.812-3.717h3.023zm-4.267 5.63c.02-.083.032-.173.036-.266a.726.726 0 0 0-.21-.576.746.746 0 0 0-.565-.236c-.54 0-.952.417-1.234 1.25-.284.833-.439 1.525-.469 2.079-.038.724.226 1.087.79 1.087.559 0 .95-.361 1.172-1.087l.48-2.25zM241.49 13.114l-2.371.513c-.154-.515-.63-.774-1.437-.774-.562 0-.852.16-.867.474-.015.278.246.466.781.56 1.096.191 1.863.398 2.303.625.441.226.766.514.977.863.211.35.304.745.282 1.186-.042.799-.413 1.475-1.113 2.024-.7.549-1.732.824-3.1.824-1.015 0-1.889-.198-2.623-.596-.733-.397-1.173-.992-1.323-1.787l2.512-.362c.166.573.706.86 1.628.86.356 0 .626-.051.805-.154.179-.104.272-.219.279-.351a.28.28 0 0 0-.16-.282c-.112-.06-.4-.143-.862-.248-.92-.211-1.573-.399-1.958-.564a2.274 2.274 0 0 1-.966-.793c-.257-.363-.37-.784-.346-1.261.042-.817.4-1.487 1.075-2.012.674-.524 1.564-.788 2.668-.788 1.004 0 1.85.195 2.54.58.69.387 1.115.873 1.275 1.463"/>
            <g fill="#D10000">
                <path d="M191.345 23.342h-.762l.107-.539h2.144l-.103.54h-.77l-.441 2.345h-.617zM193.176 22.859c.192-.047.483-.077.77-.077.274 0 .557.043.758.167a.625.625 0 0 1 .32.565c0 .428-.286.693-.654.812v.018c.171.073.244.265.274.526.034.321.06.698.111.818h-.633c-.026-.078-.056-.325-.086-.68-.026-.352-.146-.459-.39-.459h-.188l-.214 1.139h-.612l.544-2.829zm.372 1.228h.257c.334 0 .578-.2.578-.484 0-.23-.198-.334-.441-.334-.116 0-.188.009-.24.022l-.154.796zM195.923 24.938l-.342.75h-.655l1.404-2.885h.791l.338 2.885h-.645l-.06-.75h-.83zm.805-.47l-.056-.621-.043-.564h-.008c-.073.175-.155.398-.231.564l-.287.62h.625zm-.133-1.891c.09-.163.252-.214.252-.356a.11.11 0 0 0-.115-.115c-.077 0-.15.069-.201.124l-.18-.133c.124-.175.3-.308.522-.308.24 0 .394.15.394.338 0 .261-.252.338-.394.552l-.278-.102zM199.526 23.342h-.761l.107-.539h2.144l-.103.54h-.77l-.441 2.345h-.617zM201.358 22.859c.193-.047.484-.077.77-.077.274 0 .557.043.758.167a.625.625 0 0 1 .32.565c0 .428-.286.693-.654.812v.018c.171.073.244.265.274.526.034.321.06.698.111.818h-.633c-.026-.078-.056-.325-.086-.68-.025-.352-.145-.459-.389-.459h-.188l-.214 1.139h-.612l.543-2.829zm.372 1.228h.257c.334 0 .578-.2.578-.484 0-.23-.197-.334-.441-.334a.998.998 0 0 0-.24.022l-.154.796zM204.46 22.803l-.316 1.66a1.63 1.63 0 0 0-.03.343c0 .231.14.41.419.41.32 0 .535-.213.638-.748l.316-1.665h.454c.17 0 .27-.073.27-.24a.673.673 0 0 0-.043-.227l.449-.072a.947.947 0 0 1 .038.248c0 .372-.222.599-.616.616l-.248 1.314c-.162.873-.552 1.292-1.335 1.292-.595.004-.959-.304-.959-.92 0-.124.018-.266.043-.402l.304-1.61h.616v.001zM209.365 22.431a.901.901 0 0 1 .068.347c0 .325-.201.543-.518.556.099.171.141.398.141.625 0 .526-.183 1.035-.513 1.36-.27.262-.633.416-1.066.416-.749 0-1.168-.531-1.168-1.203 0-.522.192-1.04.53-1.365.27-.257.638-.41 1.053-.41.206 0 .368.03.531.102.116.051.235.133.35.133.13 0 .185-.077.185-.223a.708.708 0 0 0-.06-.26l.467-.078zm-2.042 1.057c-.231.227-.36.676-.36 1.023 0 .406.185.71.604.71.18 0 .351-.081.484-.21.227-.226.35-.701.35-1.036 0-.359-.127-.706-.581-.706a.684.684 0 0 0-.497.22zm1.306-1.403l-.565.539h-.522l.402-.54h.685zM211.367 25.606c-.153.069-.415.124-.762.124-.761 0-1.275-.462-1.275-1.224 0-.645.291-1.15.728-1.441.3-.21.655-.309 1.061-.309.312 0 .548.073.63.125l-.167.5a1.28 1.28 0 0 0-.523-.094 1.03 1.03 0 0 0-.659.222c-.244.197-.398.527-.398.929 0 .458.257.766.766.766.201 0 .402-.034.548-.094l.051.496zM189.095 23.296c0 1.179-.569 2.608-1.76 2.608-.783 0-1.09-.604-1.09-1.36 0-1.19.603-2.542 1.765-2.542.812 0 1.085.62 1.085 1.294zm-2.032 1.278c0 .278.046.668.377.668.575 0 .83-1.44.83-1.94 0-.25-.034-.638-.354-.638-.563 0-.853 1.358-.853 1.91z"/>
            </g>
            <g fill="#D10000">
                <path d="M222.482 22.807h.617l-.445 2.346h1.108l-.103.54h-1.724zM224.878 24.943l-.342.749h-.654l1.403-2.885h.792l.338 2.885h-.646l-.06-.75h-.83zm.805-.47l-.056-.621c-.012-.158-.03-.39-.042-.565h-.01c-.072.176-.153.398-.23.565l-.287.62h.625zm-.612-1.832c.06-.364.223-.54.424-.54.124 0 .196.039.27.086.063.043.119.086.175.086.068 0 .107-.052.145-.188h.3c-.06.376-.21.526-.432.526a.53.53 0 0 1-.274-.077c-.064-.043-.107-.081-.172-.081-.05.003-.102.063-.132.188h-.304zM227.878 22.807l-.548 2.885h-.615l.547-2.885zM228.811 25.024c.171.103.415.184.68.184.24 0 .458-.111.458-.338 0-.163-.124-.27-.389-.407-.308-.166-.599-.39-.599-.765 0-.583.509-.938 1.138-.938.351 0 .556.077.68.146l-.192.513a1.146 1.146 0 0 0-.54-.128c-.286 0-.436.146-.436.304 0 .167.175.27.42.406.35.184.573.42.573.762 0 .642-.531.97-1.173.97-.402 0-.689-.102-.826-.204l.206-.505zM232.02 22.807l-.316 1.661c-.021.099-.03.214-.03.342 0 .232.141.411.42.411.32 0 .535-.214.637-.75l.317-1.664h.616l-.312 1.64c-.167.873-.552 1.292-1.335 1.292-.595 0-.959-.304-.959-.92 0-.124.017-.265.043-.402l.304-1.61h.616zM234.468 24.943l-.342.749h-.655l1.404-2.885h.792l.338 2.885h-.646l-.06-.75h-.83zm1.165-2.816l.278.527h-.415l-.12-.27h-.009l-.252.27h-.467l.544-.527h.44zm-.36 2.345l-.056-.62c-.012-.158-.03-.39-.042-.565h-.01c-.072.176-.153.398-.23.565l-.287.62h.625zm1.412-2.687l-.577.479h-.308l.38-.48h.505zM237.285 23.347h-.762l.107-.54h2.144l-.103.54h-.77l-.441 2.345h-.616zM221.033 23.3c0 1.18-.569 2.608-1.76 2.608-.783 0-1.091-.604-1.091-1.36 0-1.19.604-2.542 1.766-2.542.812 0 1.085.621 1.085 1.295zm-2.032 1.278c0 .28.046.668.377.668.575 0 .83-1.44.83-1.94 0-.25-.034-.638-.354-.638-.563 0-.853 1.359-.853 1.91z"/>
            </g>
            <path fill="#D10000" d="M215.41 22.59l-.207 1.03h.997l-.092.444h-.993l-.208 1.04h-.463l.205-1.04h-.994l.085-.444h.996l.203-1.03z"/>
        </g>
        <path fill="#FFF" d="M160.23 143.462c0 .5-.182.932-.547 1.298a1.774 1.774 0 0 1-1.298.548c-.5 0-.933-.183-1.298-.548a1.774 1.774 0 0 1-.549-1.298c0-.5.183-.933.549-1.299a1.774 1.774 0 0 1 1.298-.548c.5 0 .932.183 1.298.548.365.366.548.799.548 1.299zm12.924 0c0 .5-.183.932-.548 1.298a1.774 1.774 0 0 1-1.298.548c-.5 0-.933-.183-1.298-.548a1.774 1.774 0 0 1-.548-1.298c0-.5.182-.933.548-1.299a1.774 1.774 0 0 1 1.298-.548c.5 0 .932.183 1.298.548.365.366.548.799.548 1.299zM175 127.769v7.385c0 .23-.08.435-.238.613a.912.912 0 0 1-.584.31l-15.058 1.76c.125.576.188.913.188 1.01 0 .153-.116.46-.346.922h13.269c.25 0 .466.092.649.274a.887.887 0 0 1 .274.65c0 .25-.091.466-.274.648a.887.887 0 0 1-.65.274h-14.768a.887.887 0 0 1-.65-.274.887.887 0 0 1-.274-.649c0-.105.039-.257.116-.454.077-.197.154-.37.23-.52.078-.148.18-.34.31-.576.13-.236.205-.378.224-.426l-2.553-11.87h-2.942a.887.887 0 0 1-.649-.274.887.887 0 0 1-.274-.649c0-.25.091-.466.274-.649a.887.887 0 0 1 .65-.274h3.691a.878.878 0 0 1 .693.317c.067.087.13.205.187.354.058.149.096.274.116.375l.079.425c.034.183.055.308.065.375h17.322c.25 0 .466.091.649.274a.887.887 0 0 1 .274.65z"/>
        <path fill="#B0B0B0" fill-rule="nonzero" d="M13.917 51.833H7.25c-1.15 0-2.083.934-2.083 2.084v14.166c0 1.15.933 2.084 2.083 2.084h6.667c1.15 0 2.083-.934 2.083-2.084V53.917c0-1.15-.933-2.084-2.083-2.084zm-3.334 17.5c-.691 0-1.25-.558-1.25-1.25 0-.691.559-1.25 1.25-1.25.692 0 1.25.559 1.25 1.25 0 .692-.558 1.25-1.25 1.25zM14.333 66h-7.5V54.333h7.5V66z"/>
        <path d="M1 51h20v20H1z"/>
        <g transform="translate(28 51)">
            <mask id="b" fill="#fff">
                <use xlink:href="#a"/>
            </mask>
            <path fill="#B0B0B0" fill-rule="nonzero" d="M16.667 15c.916 0 1.666-.75 1.666-1.667V5c0-.917-.75-1.667-1.666-1.667H3.333c-.916 0-1.666.75-1.666 1.667v8.333c0 .917.75 1.667 1.666 1.667H0v1.667h20V15h-3.333zM3.333 5h13.334v8.333H3.333V5z" mask="url(#b)"/>
        </g>
        <path d="M57 51h20v20H57z"/>
        <g fill="#B0B0B0" fill-rule="nonzero">
            <path d="M60.816 58.738c-1.48 2.506-.54 6.31 1.097 8.616.817 1.152 1.644 2.187 2.776 2.187h.065c.532-.022.917-.182 1.288-.336.418-.174.85-.353 1.527-.353.644 0 1.055.174 1.453.341.392.166.795.337 1.392.326 1.275-.023 2.059-1.14 2.75-2.125a9.321 9.321 0 0 0 1.205-2.409l.005-.015a.139.139 0 0 0-.076-.172l-.011-.004c-.225-.09-2.195-.943-2.216-3.269-.02-1.89 1.478-2.89 1.779-3.071l.014-.009a.137.137 0 0 0 .04-.197c-1.033-1.476-2.618-1.698-3.256-1.725a2.942 2.942 0 0 0-.284-.014c-.749 0-1.467.276-2.043.498-.398.153-.742.286-.98.286-.266 0-.612-.134-1.012-.29-.535-.207-1.142-.442-1.785-.442H64.5c-1.494.022-2.905.856-3.683 2.177z"/>
            <path d="M70.65 52.459c-.905.036-1.99.58-2.639 1.32-.55.624-1.09 1.663-.947 2.71a.142.142 0 0 0 .13.121c.062.005.124.007.186.008.885 0 1.839-.478 2.49-1.247.686-.812 1.033-1.854.928-2.788a.143.143 0 0 0-.148-.124z"/>
        </g>
        <g fill="#FFF" opacity=".9">
            <path d="M173.46 90.99s-.902-.538-1.461-.746c0 0-1.728-.77-2.072-1.138 0 0-.672-.611-.278-1.321 0 0 .164-.465.876-.465 0 0 .927.05.927.783v1.035h3.321l-.006-1.524s.255-2.496-3.912-2.606c0 0-3.278-.208-4.217 1.493 0 0-.37.378-.37 1.7v.954s-.037 1.102.547 1.81c0 0 .33.465 1.144.98 0 0 1.651.856 2.642 1.346 0 0 1 .55.869 1.425 0 0-.081.898-1.048.862 0 0-.883-.04-.883-.92v-1.034H166v1.502S165.9 98 170.448 98c0 0 4.345.085 4.548-2.95v-1.222s.153-1.86-1.536-2.838M156.197 85l-1.104 7.144h-.258l-1.054-7.08h-5.506L148 98h3.26l.039-9.747h.256l1.728 9.745h3.429l1.706-9.741h.227l.079 9.743H162l-.352-13h-5.451M136.196 85L134 98h3.553l1.3-10.08h.294l1.3 10.08H144l-2.196-13h-5.608M210.533 90.918v1.796h.948v1.927c0 .941-.872.959-.872.959-1.06 0-1.02-.895-1.02-.895V88.04c0-.687.94-.723.94-.723.903 0 .91.818.91.818v1.014h3.478c.113-1.978-.314-2.457-.314-2.457-.863-1.789-4.126-1.691-4.126-1.691-5.015 0-4.459 3.553-4.459 3.553v6.444c.108 3.333 5.049 2.995 5.133 2.99 2.199-.224 2.862-.87 2.862-.87.611-.418.769-.997.769-.997.174-.339.218-1.416.218-1.416v-3.787h-4.467M199.807 92.911h-.149l-3.488-7.91H192V98h3.395l-.204-7.91h.151l3.613 7.91H203V85h-3.438l.245 7.911M183.506 94.48s.048 1.037-.908 1.037c0 0-1.006.055-1.006-1.01l-.01-9.507h-3.576v9.43s-.367 3.57 4.642 3.57c0 0 4.352.052 4.352-3.405V85h-3.494v9.48M129.459 90.99s-.902-.538-1.461-.746c0 0-1.727-.77-2.07-1.138 0 0-.673-.612-.279-1.32 0 0 .165-.465.875-.465 0 0 .928.048.928.782v1.035h3.323l-.007-1.525s.253-2.496-3.912-2.605c0 0-.314-.02-.775.003 0 0-2.523.13-3.426 1.463-.005.01-.012.018-.017.027 0 0-.368.378-.368 1.7v.954s-.039 1.101.546 1.81c0 0 .33.465 1.144.98 0 0 1.65.855 2.64 1.345 0 0 1.002.55.87 1.426 0 0-.081.898-1.047.862 0 0-.883-.04-.883-.92v-1.035H122v1.503S121.901 98 126.448 98c0 0 4.345.085 4.548-2.95v-1.222s.153-1.86-1.537-2.838"/>
        </g>
        <path d="M86 51h20v20H86z"/>
        <path fill="#B0B0B0" fill-rule="nonzero" d="M103.5 54.333h-15c-.917 0-1.667.75-1.667 1.667v10c0 .917.75 1.667 1.667 1.667h15c.917 0 1.658-.75 1.658-1.667l.009-10c0-.917-.75-1.667-1.667-1.667zM101.833 66H90.167V56h11.666v10z"/>
        <path d="M113 52h20v20h-20z" opacity=".1"/>
        <path fill="#B0B0B0" fill-rule="nonzero" d="M123 52.833a7.5 7.5 0 0 0-7.5 7.5v5.834c0 1.383 1.117 2.5 2.5 2.5h2.5V62h-3.333v-1.667A5.83 5.83 0 0 1 123 54.5a5.83 5.83 0 0 1 5.833 5.833V62H125.5v6.667h2.5c1.383 0 2.5-1.117 2.5-2.5v-5.834a7.5 7.5 0 0 0-7.5-7.5zM152.295 54.705a7.465 7.465 0 0 0-5.3-2.205 7.495 7.495 0 0 0-7.495 7.505 7.495 7.495 0 0 0 7.495 7.504c3.5 0 6.417-2.392 7.252-5.628h-1.952a5.62 5.62 0 0 1-5.3 3.752 5.633 5.633 0 0 1-5.628-5.628 5.633 5.633 0 0 1 5.628-5.629c1.558 0 2.946.647 3.959 1.67l-3.02 3.02h6.566V52.5l-2.205 2.205z"/>
        <path d="M137 50h20v20h-20z"/>
        <path fill="#B0B0B0" fill-rule="nonzero" d="M177.725 54.592A1.59 1.59 0 0 0 176.142 53h-6.367L165 57.775v9.55c0 .875.716 1.592 1.592 1.592h9.558a1.59 1.59 0 0 0 1.583-1.592l-.008-12.733zm-8.746 11.937h-1.592v-1.591h1.592v1.591zm6.367 0h-1.592v-3.183h1.592v3.183zm-6.367-1.591h-1.592v-4.776h1.592v4.776zm3.183 1.591h-1.591v-4.775h1.592v4.775zm0-4.775h-1.591v-1.591h1.592v1.591zm3.184 1.592h-1.592v-3.183h1.592v3.183z"/>
        <path d="M161 51h20v20h-20z"/>
        <g>
            <path d="M212 51h20v20h-20z"/>
            <path fill="#B0B0B0" d="M222 67.466l-2.833 2.252-.968-3.487-3.615.157 1.267-3.39L212.833 61l3.018-1.998-1.267-3.39 3.615.157.968-3.487L222 54.534l2.833-2.252.968 3.487 3.615-.157-1.267 3.39L231.167 61l-3.018 1.998 1.267 3.39-3.615-.157-.968 3.487L222 67.466zm-3.333-8.265c0 .542.12.948.36 1.216.24.269.54.403.901.403.364 0 .67-.136.918-.409.248-.272.372-.661.372-1.166 0-.518-.123-.91-.368-1.178a1.208 1.208 0 0 0-.93-.4c-.407 0-.718.149-.932.447-.214.299-.321.66-.321 1.087zm1.277 4.752h.607l3.25-6.286h-.593l-3.264 6.286zm2.58-1.62c0 .54.12.946.36 1.215.24.27.54.405.901.405.367 0 .674-.136.922-.409.248-.272.372-.66.372-1.165 0-.519-.122-.911-.368-1.178a1.208 1.208 0 0 0-.93-.401c-.41 0-.721.148-.935.445-.215.297-.322.66-.322 1.089z"/>
        </g>
        <g fill-rule="nonzero">
            <path fill="#034EA2" d="M61.771 30.814a2.464 2.464 0 0 1 4.925 0 2.465 2.465 0 0 1-2.46 2.464 2.467 2.467 0 0 1-2.465-2.464zm4.327 0c0-1.15-.834-1.984-1.863-1.984-1.03 0-1.861.833-1.861 1.984 0 1.154.83 1.988 1.861 1.988 1.03 0 1.863-.834 1.863-1.988zm-2.813-1.404h1.039c.665 0 1.03.233 1.03.82 0 .477-.274.708-.73.75l.748 1.22h-.53l-.72-1.201h-.317v1.2h-.52V29.41zm.52 1.195h.46c.301 0 .571-.043.571-.417 0-.33-.299-.383-.568-.383h-.462v.8zM12.906 6.699a8.317 8.317 0 0 0-7.967 5.93l-.18.713L.142 33.335H11.77a8.045 8.045 0 0 0 7.558-5.286l.439-1.904 4.49-19.446H12.906z"/>
            <path fill="#F37021" d="M34.842.04a8.319 8.319 0 0 0-8.182 6.837l-7.647 33.12h11.352c3.888 0 7.153-2.673 8.06-6.282v.002h.005L46.205.039H34.842z"/>
            <path fill="#51B848" d="M53.72 6.699a8.315 8.315 0 0 0-7.772 5.362c-.06.16-.272.823-.272.823l-4.721 20.45h11.353a8.316 8.316 0 0 0 8.07-6.31v.001L65.07 6.7H53.72z"/>
            <path fill="#FFF" d="M7.842 14.078c-.642.527-1.053 1.173-1.173 1.69l-2.4 10.84.134-.002c.748 0 1.453-.265 2.09-.79.64-.525 1.047-1.168 1.21-1.912l.614-2.754h5.155c.745 0 1.454-.265 2.1-.79.646-.528 1.057-1.173 1.217-1.92l.029-.14H8.955l.48-2.167h7.45c.751 0 1.452-.263 2.093-.786a3.486 3.486 0 0 0 1.208-1.923l.03-.139H9.932c-.748 0-1.453.266-2.09.793M60.336 13.929c-.415-.416-.954-.625-1.605-.625H48.453l-.019.09a2.96 2.96 0 0 0-.058.566c0 .628.207 1.156.621 1.57.415.414.953.624 1.607.624h2.219l-2.229 10.455h.14c.747 0 1.446-.263 2.084-.787.635-.522 1.035-1.165 1.19-1.911l1.648-7.757h5.226l.016-.09c.04-.192.058-.389.058-.586 0-.617-.21-1.137-.62-1.55M37.782 13.286h-6.949l.002-.008H27.98l-2.832 13.33h.137c.746 0 1.448-.265 2.084-.79.635-.525 1.035-1.168 1.192-1.912l.576-2.74h7.014c.746 0 1.446-.265 2.085-.784.633-.52 1.04-1.17 1.207-1.928l.53-2.409a3.1 3.1 0 0 0 .055-.586c0-.614-.211-1.137-.631-1.55-.42-.414-.964-.623-1.615-.623zm-7.563 2.85h6.88l-.472 2.18H29.74l.478-2.18z"/>
            <g fill="#FFF">
                <path d="M72.65 23.137c.747.378 1.942.754 3.154.754 1.305 0 1.999-.521 1.999-1.31 0-.755-.598-1.185-2.11-1.69-2.09-.717-3.472-1.83-3.472-3.591 0-2.066 1.81-3.627 4.761-3.627 1.436 0 2.465.269 3.211.609l-.637 2.193a6.047 6.047 0 0 0-2.613-.576c-1.233 0-1.83.556-1.83 1.168 0 .772.692 1.113 2.335 1.706 2.22.79 3.249 1.906 3.249 3.611 0 2.028-1.607 3.753-5.061 3.753-1.438 0-2.855-.378-3.567-.756l.58-2.244zM82.468 13.188h2.839v5.048h.036a3.03 3.03 0 0 1 1.121-.919c.43-.214.952-.34 1.474-.34 1.811 0 3.193 1.203 3.193 3.862v5.118h-2.838v-4.83c0-1.15-.41-1.94-1.473-1.94-.75 0-1.213.468-1.42.97-.076.16-.093.395-.093.591v5.209h-2.84v-12.77zM97.61 26.156c-2.67 0-4.724-1.69-4.724-4.524 0-2.84 1.943-4.655 4.89-4.655 2.783 0 4.649 1.85 4.649 4.508 0 3.2-2.37 4.67-4.798 4.67h-.017zm.073-1.957c1.122 0 1.809-1.062 1.809-2.644 0-1.291-.52-2.621-1.81-2.621-1.343 0-1.864 1.33-1.864 2.641 0 1.49.65 2.624 1.847 2.624h.018zM104.181 20.12c0-1.15-.038-2.12-.075-2.945h2.465l.126 1.221h.04c.672-.917 1.718-1.419 3.045-1.419 1.996 0 3.786 1.671 3.786 4.472 0 3.197-2.107 4.707-4.142 4.707-1.102 0-1.959-.431-2.371-1.007h-.04v4.364h-2.834V20.12zm2.834 2.066c0 .215.022.395.058.575a1.703 1.703 0 0 0 1.66 1.292c1.233 0 1.962-.988 1.962-2.478 0-1.401-.654-2.46-1.922-2.46-.804 0-1.512.576-1.7 1.382a2.075 2.075 0 0 0-.058.485v1.204z"/>
                <g>
                    <path d="M115.617 26.052c-.527 0-.91-.386-.91-.914 0-.545.383-.922.928-.922.537 0 .908.368.918.922 0 .529-.37.914-.926.914h-.01zM121.29 25.813c-.28.13-.808.229-1.405.229-1.628 0-2.67-.964-2.67-2.482 0-1.408 1.012-2.57 2.888-2.57.413 0 .865.07 1.195.188l-.247 1.122c-.185-.08-.464-.147-.875-.147-.827 0-1.364.565-1.352 1.348 0 .893.618 1.36 1.381 1.36.373 0 .661-.06.899-.16l.187 1.112zM124.363 26.052c-1.476 0-2.61-.932-2.61-2.503 0-1.568 1.072-2.569 2.703-2.569 1.537 0 2.569 1.022 2.569 2.491 0 1.765-1.312 2.581-2.652 2.581h-.01zm.04-1.082c.622 0 1.002-.586 1.002-1.459 0-.715-.289-1.448-1.002-1.448-.741 0-1.029.733-1.029 1.457 0 .824.36 1.45 1.018 1.45h.011zM127.995 22.637c0-.603-.023-1.112-.04-1.547h1.33l.06.664h.032c.217-.317.672-.774 1.527-.774.66 0 1.167.328 1.384.834h.018c.195-.259.413-.455.662-.598a1.99 1.99 0 0 1 .96-.236c.968 0 1.7.655 1.7 2.104v2.86h-1.525v-2.631c0-.705-.24-1.113-.744-1.113-.369 0-.62.239-.733.53-.03.106-.05.256-.05.375v2.838h-1.53v-2.721c0-.605-.224-1.022-.73-1.022-.4 0-.64.298-.732.536a.958.958 0 0 0-.062.388v2.82h-1.527v-3.307zM137.66 26.052c-.524 0-.907-.386-.907-.914 0-.545.383-.922.93-.922.536 0 .906.368.918.922 0 .529-.374.914-.93.914h-.01zM140.715 21.09l.68 2.25c.122.409.206.796.289 1.182h.03c.082-.396.165-.76.28-1.181l.648-2.25h1.652l-1.878 4.852h-1.567l-1.838-4.853h1.704zM145.016 22.637c0-.603-.02-1.112-.042-1.547h1.361l.075.676h.03c.206-.32.712-.786 1.557-.786 1.032 0 1.805.663 1.805 2.094v2.87h-1.567v-2.69c0-.627-.226-1.054-.796-1.054-.433 0-.69.287-.803.567-.043.1-.053.238-.053.376v2.8h-1.567v-3.306z"/>
                </g>
            </g>
        </g>
        <g fill="#9B9B9B" opacity=".567">
            <path d="M105.39 93.33l3.394-3.393.848.848-4.242 4.243-.849-.849-3.394-3.394.849-.848 3.394 3.394z"/>
        </g>
        <g fill="#FFF" fill-rule="nonzero">
            <path d="M26.462 98.862l-4.78-4.78c-.025-.025-.055-.043-.082-.066a9.045 9.045 0 1 0-2.585 2.585c.024.026.042.056.067.081l4.78 4.78a1.839 1.839 0 0 0 2.6-2.6zm-12.417-3.908a5.91 5.91 0 1 1 0-11.818 5.91 5.91 0 0 1 0 11.818z"/>
        </g>
        <g transform="translate(97 116)">
            <circle cx="18" cy="18" r="18" fill="#FFF" stroke="#E3E3E3"/>
            <path fill="#8B8B8B" d="M21.204 18.098l-7.833-7.832 1.958-1.958 9.79 9.79-1.957 1.959-7.833 7.832-1.958-1.958 7.833-7.833z"/>
        </g>
        <g transform="rotate(-180 46.5 76)">
            <circle cx="18" cy="18" r="18" fill="#FFF" stroke="#E3E3E3"/>
            <path fill="#8B8B8B" d="M21.204 18.098l-7.833-7.832 1.958-1.958 9.79 9.79-1.957 1.959-7.833 7.832-1.958-1.958 7.833-7.833z"/>
        </g>
        <g fill="#B0B0B0">
            <g fill-rule="nonzero">
                <path d="M15 122c-1.615 0-2.969 1.314-2.969 2.93 0 1.615 1.354 2.93 2.969 2.93a2.933 2.933 0 0 0 2.93-2.93A2.933 2.933 0 0 0 15 122zm0 4.688a1.76 1.76 0 0 1-1.758-1.758c0-.97.789-1.758 1.758-1.758.97 0 1.758.788 1.758 1.758A1.76 1.76 0 0 1 15 126.687z"/>
                <path d="M24.313 130.89a.586.586 0 1 0-.828.828 1.173 1.173 0 0 1-.829 2h-.03c-.297-3.28-3.098-5.859-6.454-5.859H13.242c-.36 0-.767.038-1.176.117a4.059 4.059 0 0 0-2.964-1.288.586.586 0 0 0-.586.585v2.638a6.423 6.423 0 0 0-1.495 2.636h-.263A1.76 1.76 0 0 0 5 134.305v1.25c0 .969.789 1.757 1.758 1.757.002.002.394 0 .704.002.4.782.958 1.478 1.637 2.039.003.783.003 2.061.003 2.061 0 .324.262.586.585.586h2.344c.324 0 .625-.262.625-.586v-.612c.195.018.39.026.586.026h2.93v.586c0 .324.262.586.586.586h2.383a.586.586 0 0 0 .586-.586l.002-1.63c1.65-1.077 2.71-2.94 2.89-4.893h.037A2.346 2.346 0 0 0 25 132.547c0-.626-.244-1.214-.687-1.657zm-14.631 2.84a.596.596 0 0 1-.592-.591c0-.324.268-.592.592-.592.324 0 .591.268.591.592a.595.595 0 0 1-.591.591zm7.662-2.355h-4.688c-.324 0-.625-.262-.625-.586 0-.324.301-.586.625-.586h4.688a.586.586 0 1 1 0 1.172z"/>
            </g>
        </g>
    </g>
</svg>
